<?xml version="1.0" encoding="UTF-8" standalone="no"?>
<svg width="275px" height="205px" viewBox="0 0 275 205" version="1.1" xmlns="http://www.w3.org/2000/svg" xmlns:xlink="http://www.w3.org/1999/xlink">
    <!-- Generator: Sketch 41 (35326) - http://www.bohemiancoding.com/sketch -->
    <title>emptystate-invoice</title>
    <desc>Created with Sketch.</desc>
    <defs></defs>
    <g id="Platform" stroke="none" stroke-width="1" fill="none" fill-rule="evenodd">
        <g id="invoice-empty" transform="translate(-574.000000, -335.000000)">
            <g id="emptystate-invoice" transform="translate(574.000000, 335.000000)">
                <g id="noun_1064072_cc" fill="#000000">
                    <g id="Group">
                        <path d="M82.4931669,0 C72.8462502,0 64.9987583,7.8466359 64.9987583,17.4925004 L64.9987583,27.5174974 C64.9987583,28.896906 66.1184005,30.016426 67.4979595,30.016426 L94.9891731,30.016426 L94.9891731,66.4949265 L61.2304327,47.0110949 C60.4606787,46.5612877 59.5009804,46.5612877 58.7312315,47.0110949 L1.24960062,80.1902249 C0.474848234,80.6350342 0,81.4626494 0,82.3572658 L0,148.715536 C0,149.610152 0.474848234,150.437768 1.24960062,150.882577 L58.7312315,184.071473 C59.1161085,184.296376 59.5509695,184.40336 59.9808321,184.40336 C60.3607107,184.40336 60.7341063,184.280443 61.0839945,184.110516 C61.1389769,184.090525 61.194974,184.086696 61.2499565,184.061707 L94.9891731,164.587636 L94.9891731,202.442501 C94.9891731,203.82191 96.1088152,204.94143 97.4883743,204.94143 L237.443643,205 C238.108431,205 238.740804,204.73269 239.210654,204.267889 C239.680503,203.803088 239.942845,203.165786 239.942845,202.501071 L239.942845,17.4925004 C239.942845,7.85162876 232.090354,0 222.448436,0 L82.4931669,0 Z M82.4931669,4.99785726 C89.3809655,4.99785726 94.9891731,10.6004552 94.9891731,17.4925004 L94.9891731,22.4903577 L94.9891731,25.0185687 L69.9971608,25.0185687 L69.9971608,17.4925004 C69.9971608,10.6004552 75.6053683,4.99785226 82.4931669,4.99785726 Z M94.6962967,4.99785726 L222.448436,4.99785726 C229.336235,4.99785726 234.944442,10.6004552 234.944442,17.4925004 L234.944442,199.992377 L99.9875756,199.943573 L99.9875756,160.253559 L99.9875756,70.8192425 L99.9875756,27.5174974 L99.9875756,22.4903577 L99.9875756,17.4925004 C99.9875756,12.5945953 97.9502567,8.17648948 94.6962967,4.99785726 Z M112.590967,15.0033326 C111.211408,15.0033326 110.091766,16.1228526 110.091766,17.5022612 L110.091766,27.4979757 C110.091766,28.8773843 111.211408,29.9969044 112.590967,29.9969044 L222.555822,29.9969044 C223.935381,29.9969044 225.055023,28.8773843 225.055023,27.4979757 L225.055023,17.5022612 C225.055023,16.1228526 223.935381,15.0033326 222.555822,15.0033326 L112.590967,15.0033326 Z M115.090169,20.0011899 L220.05662,20.0011899 L220.05662,24.9990471 L115.090169,24.9990471 L115.090169,20.0011899 Z M112.483582,39.9926189 C111.104023,39.9926189 109.98438,41.1121389 109.98438,42.4915475 L109.98438,63.2736526 L109.98438,72.4786911 C109.98438,73.8580997 111.099024,74.9776197 112.483582,74.9776197 L115.275659,74.9776197 L142.473997,74.9776197 C143.853556,74.9776197 144.973198,73.8580997 144.973198,72.4786911 L144.973198,63.2736526 L144.973198,42.4915475 C144.973198,41.1121389 143.853556,39.9926189 142.473997,39.9926189 L112.483582,39.9926189 Z M157.57659,39.9926189 C156.197031,39.9926189 155.077388,41.1121389 155.077388,42.4915475 C155.077388,43.8709561 156.197031,44.9904762 157.57659,44.9904762 L222.555822,44.9904762 C223.935381,44.9904762 225.055023,43.8709561 225.055023,42.4915475 C225.055023,41.1121389 223.935381,39.9926189 222.555822,39.9926189 L157.57659,39.9926189 Z M254.22539,46.5425457 C252.301005,59.2720882 250.007988,79.1137364 250.007988,101.304223 C250.007988,130.201833 253.935247,152.234572 254.859952,157.022519 L250.203235,166.325171 C249.803363,167.124828 249.864594,168.089185 250.359435,168.833866 L260.35624,183.827437 C260.391229,183.882414 260.452929,183.899357 260.492917,183.954333 C260.662862,184.169241 260.8585,184.341277 261.088426,184.491213 C261.178403,184.551187 261.247285,184.621937 261.342255,184.666917 C261.67215,184.831847 262.040782,184.94024 262.435656,184.94024 C262.830529,184.94024 263.194163,184.831847 263.529056,184.666917 C263.624026,184.621937 263.692909,184.546189 263.78288,184.491213 C264.012807,184.341277 264.213447,184.169241 264.378395,183.954333 C264.418382,183.904354 264.480077,183.882414 264.515066,183.827437 L274.511871,168.833866 C275.011711,168.08918 275.067943,167.124828 274.668071,166.325171 L270.089459,157.178703 C270.874209,152.670635 275,127.702905 275,101.928955 C274.995002,76.1899899 271.752753,52.5742548 270.763069,45.947096 C270.498154,44.1778546 269.171628,40.0609446 262.513756,40.0609446 C258.126093,40.0609446 254.810203,42.6642035 254.22539,46.5425457 Z M114.982783,44.9904762 L139.974795,44.9904762 L139.974795,57.2410789 L135.24974,52.5067837 C134.275052,51.5322015 132.690403,51.5322015 131.715715,52.5067837 L127.478789,56.7432474 L123.241863,52.5067837 C122.26717,51.5322015 120.682521,51.5322015 119.707833,52.5067837 L114.982783,57.2410789 L114.982783,44.9904762 Z M262.474703,45.0588019 L262.513756,45.0588019 C265.587773,45.0588019 265.743269,46.1544271 265.823243,46.6792021 C265.948203,47.4988507 266.102139,48.5810468 266.282081,49.9004761 L258.784478,49.9004761 C258.909438,49.0308539 259.040256,48.1038264 259.165216,47.2941735 C259.470118,45.2750392 261.579989,45.0588069 262.474703,45.0588019 Z M157.57659,49.9883334 C156.197031,49.9883334 155.077388,51.1078534 155.077388,52.487262 C155.077388,53.8666707 156.192032,54.9861907 157.57659,54.9861907 L187.567004,54.9861907 C188.946563,54.9861907 190.066206,53.8666707 190.066206,52.487262 C190.066206,51.1078534 188.946563,49.9883334 187.567004,49.9883334 L157.57659,49.9883334 Z M59.990594,52.0479954 L94.998935,72.2639382 L94.998935,92.2748888 L86.3591163,97.2727461 C85.1644982,97.9624504 84.7516601,99.4897656 85.4414446,100.689251 C85.9062911,101.488908 86.7439933,101.938716 87.608717,101.938716 C88.0335812,101.938716 88.4634438,101.826964 88.8583176,101.597062 L94.998935,98.0536613 L94.998935,158.808864 L62.7338572,177.423933 L62.7338572,158.008427 C62.7338572,156.629018 61.614215,155.509498 60.234656,155.509498 C58.8550969,155.509498 57.7354547,156.629018 57.7354547,158.008427 L57.7354547,177.726533 L4.99840247,147.280606 L4.99840247,86.8377699 L31.6305131,102.212033 C32.0253919,102.441935 32.4552495,102.543926 32.8801137,102.543926 C33.7448423,102.543926 34.5825396,102.094119 35.047391,101.294462 C35.7371706,100.099974 35.3243325,98.5676609 34.1297143,97.8779566 L7.37069126,82.4255965 L59.990594,52.0479954 Z M258.101101,54.8983333 L266.936167,54.8983333 C268.245749,65.448815 269.991831,83.1072593 269.991831,101.919194 C269.991831,118.327159 268.296907,134.417136 266.887358,144.947621 L257.964425,144.947621 C256.589869,134.986892 254.996623,119.556397 254.996623,101.304223 C254.996623,83.4068958 256.511609,67.1280901 258.101101,54.8983333 Z M157.57659,59.9840479 C156.197031,59.9840479 155.077388,61.103568 155.077388,62.4829766 C155.077388,63.8623852 156.192032,64.9819052 157.57659,64.9819052 L177.570199,64.9819052 C178.949759,64.9819052 180.069401,63.8623852 180.069401,62.4829766 C180.069401,61.103568 178.949759,59.9840479 177.570199,59.9840479 L157.57659,59.9840479 Z M60.234656,61.9460967 C56.1009771,61.9460967 52.7370523,65.3096547 52.7370523,69.4428826 C52.7370523,73.5761106 56.1009771,76.9396685 60.234656,76.9396685 C64.3683348,76.9396685 67.7322597,73.5761106 67.7322597,69.4428826 C67.7322597,65.3096547 64.3683348,61.9460967 60.234656,61.9460967 Z M60.234656,66.943954 C61.614215,66.943954 62.7338572,68.0684719 62.7338572,69.4428826 C62.7338572,70.8172934 61.614215,71.9418113 60.234656,71.9418113 C58.8550969,71.9418113 57.7354547,70.8172934 57.7354547,69.4428826 C57.7354547,68.0684719 58.8600953,66.943954 60.234656,66.943954 Z M46.4402348,72.6153475 C46.0216915,72.6244845 45.6121499,72.738608 45.2492104,72.9472402 C44.6738832,73.2781235 44.2538218,73.8242497 44.0816688,74.4651732 C43.9095159,75.1060966 43.999413,75.7891685 44.3315337,76.3637404 C44.6624532,76.9390063 45.2086398,77.3590229 45.8496344,77.5311571 C46.490629,77.7032913 47.1737766,77.6134032 47.7484117,77.281317 C48.3237403,76.9504337 48.7438027,76.4043066 48.9159557,75.763382 C49.0881087,75.1224573 48.9982107,74.4393842 48.6660884,73.8648118 C48.2088581,73.0722799 47.355004,72.592976 46.4402348,72.6153475 L46.4402348,72.6153475 Z M73.9021627,72.6251133 C73.0538842,72.6678563 72.2853845,73.1384652 71.8617998,73.8745776 C71.5296787,74.449149 71.4397808,75.1322204 71.6119328,75.7731438 C71.7840847,76.4140671 72.2041451,76.9601937 72.7794715,77.2910779 C73.97404,77.9760481 75.4976738,77.5657177 76.1865876,76.3735063 C76.5187099,75.7989339 76.6086079,75.1158608 76.4364549,74.4749361 C76.2643019,73.8340115 75.8442395,73.2878844 75.2689109,72.957001 C74.8544986,72.7178247 74.380127,72.6026329 73.9021627,72.6251133 Z M37.7906543,77.6132048 C37.3721123,77.622351 36.962573,77.7364738 36.5996299,77.9450975 C36.0243467,78.2760219 35.6043235,78.8221474 35.4321752,79.4630538 C35.2600268,80.1039601 35.3498912,80.7870123 35.6819532,81.3615977 C36.3709436,82.553709 37.894483,82.9640161 39.0890693,82.2791743 C39.6643539,81.9482499 40.084378,81.4021235 40.2565264,80.7612159 C40.4286748,80.1203083 40.3388096,79.437255 40.006746,78.8626691 C39.5511735,78.073287 38.7019477,77.5944813 37.7906543,77.6132048 Z M82.5810289,77.6132048 C81.7292305,77.6527314 80.9563654,78.1237599 80.5309041,78.8626691 C79.8476186,80.0596773 80.2625491,81.5838426 81.4583377,82.2694135 C82.652924,82.9542553 84.1764634,82.5439482 84.8654537,81.3518369 C85.5503669,80.157382 85.1400154,78.6340125 83.947777,77.9450975 C83.5333607,77.7059308 83.0589925,77.5907381 82.5810289,77.6132048 Z M29.12155,82.6013012 C28.7030081,82.6104474 28.2934687,82.7245703 27.9305257,82.9331939 C27.3552428,83.2641187 26.93522,83.8102443 26.7630721,84.4511507 C26.5909241,85.092057 26.6807888,85.7751089 27.0128509,86.3496941 C27.3438115,86.9249155 27.8899971,87.3448934 28.5309741,87.517023 C29.1719511,87.6891526 29.8550785,87.5992975 30.4297269,87.2672708 C31.0050115,86.9363463 31.4250356,86.3902199 31.597184,85.7493123 C31.7693324,85.1084047 31.6794672,84.4253514 31.3474036,83.8507655 C30.890139,83.0582684 30.0363074,82.5789771 29.12155,82.6013012 L29.12155,82.6013012 Z M91.2403712,82.6013012 C90.392105,82.6440837 89.6236227,83.114682 89.2000084,83.8507655 C88.8679443,84.4253508 88.7780783,85.1084037 88.9502258,85.7493112 C89.1223733,86.3902187 89.5423963,86.9363455 90.1176801,87.2672708 C91.3148202,87.9504809 92.8391522,87.5355933 93.5247961,86.3399333 C94.2097093,85.1454785 93.7993578,83.622109 92.6071194,82.9331939 C92.1927031,82.6940272 91.7183349,82.5788345 91.2403712,82.6013012 Z M112.590967,84.9733342 C111.211408,84.9733342 110.091766,86.0928543 110.091766,87.4722629 L110.091766,97.4679774 C110.091766,98.847386 111.211408,99.966906 112.590967,99.966906 L222.555822,99.966906 C223.935381,99.966906 225.055023,98.847386 225.055023,97.4679774 L225.055023,87.4722629 C225.055023,86.0928543 223.935381,84.9733342 222.555822,84.9733342 L112.590967,84.9733342 Z M115.090169,89.9711915 L220.05662,89.9711915 L220.05662,94.9690488 L115.090169,94.9690488 L115.090169,89.9711915 Z M17.8556212,101.928955 C16.4753505,101.928955 15.3564199,103.047763 15.3564199,104.427883 C15.3564199,105.808004 16.4753505,106.926812 17.8556212,106.926812 C19.2358919,106.926812 20.3548224,105.808004 20.3548224,104.427883 C20.3548224,103.047763 19.2358919,101.928955 17.8556212,101.928955 Z M172.571797,109.962621 C171.192238,109.962621 170.072596,111.082141 170.072596,112.461549 C170.072596,113.840958 171.192238,114.960478 172.571797,114.960478 L222.555822,114.960478 C223.935381,114.960478 225.055023,113.840958 225.055023,112.461549 C225.055023,111.082141 223.935381,109.962621 222.555822,109.962621 L172.571797,109.962621 Z M17.8556212,111.924669 C16.4753505,111.924669 15.3564199,113.043478 15.3564199,114.423598 C15.3564199,115.803718 16.4753505,116.922527 17.8556212,116.922527 C19.2358919,116.922527 20.3548224,115.803718 20.3548224,114.423598 C20.3548224,113.043478 19.2358919,111.924669 17.8556212,111.924669 Z M172.571797,119.958335 C171.192238,119.958335 170.072596,121.077855 170.072596,122.457264 C170.072596,123.836672 171.192238,124.956192 172.571797,124.956192 L222.555822,124.956192 C223.935381,124.956192 225.055023,123.836672 225.055023,122.457264 C225.055023,121.077855 223.935381,119.958335 222.555822,119.958335 L172.571797,119.958335 Z M17.8556212,121.920384 C16.4753505,121.920384 15.3564199,123.039192 15.3564199,124.419312 C15.3564199,125.799433 16.4753505,126.918241 17.8556212,126.918241 C19.2358919,126.918241 20.3548224,125.799433 20.3548224,124.419312 C20.3548224,123.039192 19.2358919,121.920384 17.8556212,121.920384 Z M172.571797,129.95405 C171.192238,129.95405 170.072596,131.07357 170.072596,132.452978 C170.072596,133.832387 171.192238,134.951907 172.571797,134.951907 L222.555822,134.951907 C223.935381,134.951907 225.055023,133.832387 225.055023,132.452978 C225.055023,131.07357 223.935381,129.95405 222.555822,129.95405 L172.571797,129.95405 Z M17.2308209,131.945381 C14.8293914,132.116403 12.5463806,133.42795 11.2561679,135.664491 C9.19182771,139.247955 10.4303384,143.840126 14.0091945,145.904241 L14.0091945,145.914002 C15.1838191,146.588713 16.4638785,146.90967 17.7384711,146.90967 C20.332642,146.90967 22.8605061,145.560249 24.250062,143.161277 C26.3144022,139.577814 25.075892,134.99064 21.4970359,132.921527 C20.1587136,132.156855 18.6716789,131.84277 17.2308209,131.945381 Z M18.0606342,136.933477 C18.3831871,136.972446 18.7089425,137.075916 19.007597,137.245843 C20.1972168,137.940546 20.600291,139.467861 19.9155098,140.662349 C19.2307287,141.851839 17.7130108,142.274627 16.5083958,141.57992 C15.318776,140.890221 14.9059389,139.357908 15.5907201,138.16342 C16.1043059,137.267554 17.0929744,136.816572 18.0606342,136.933477 Z M172.571797,139.949764 C171.192238,139.949764 170.072596,141.069284 170.072596,142.448693 C170.072596,143.828101 171.192238,144.947621 172.571797,144.947621 L222.555822,144.947621 C223.935381,144.947621 225.055023,143.828101 225.055023,142.448693 C225.055023,141.069284 223.935381,139.949764 222.555822,139.949764 L172.571797,139.949764 Z M31.5036037,146.255651 C30.6553374,146.298433 29.8868551,146.769031 29.4632408,147.505115 C28.7783234,148.69957 29.188673,150.222942 30.3809125,150.911859 C30.9555611,151.243887 31.6386889,151.333742 32.2796664,151.161612 C32.9206439,150.989483 33.4668299,150.569505 33.7977904,149.994283 C34.4827036,148.799828 34.0723521,147.276458 32.8801137,146.587543 C32.4628675,146.346548 31.9848441,146.231291 31.5036037,146.255651 L31.5036037,146.255651 Z M88.8583176,146.255651 C88.4397757,146.264797 88.0302363,146.37892 87.6672932,146.587543 C87.09201,146.918468 86.6719868,147.464593 86.4998385,148.1055 C86.3276902,148.746406 86.4175545,149.429458 86.7496165,150.004044 C87.0805771,150.579265 87.626763,150.999244 88.2677406,151.171373 C88.9087181,151.343503 89.5918459,151.253648 90.1664945,150.92162 C90.7417791,150.590696 91.1618032,150.044569 91.3339516,149.403662 C91.5061,148.762754 91.4162348,148.079701 91.0841712,147.505115 C90.6269066,146.712618 89.773075,146.233326 88.8583176,146.255651 Z M172.571797,149.945479 C171.192238,149.945479 170.072596,151.064999 170.072596,152.444407 C170.072596,153.823816 171.192238,154.943336 172.571797,154.943336 L222.555822,154.943336 C223.935381,154.943336 225.055023,153.823816 225.055023,152.444407 C225.055023,151.064999 223.935381,149.945479 222.555822,149.945479 L172.571797,149.945479 Z M258.696616,149.945479 L266.184458,149.945479 C265.874557,152.034583 265.603393,153.738852 265.403457,154.943336 L259.555716,154.943336 C259.335786,153.758844 259.031509,152.074566 258.696616,149.945479 Z M80.1794514,151.224225 C79.7609086,151.233361 79.351367,151.347483 78.9884271,151.556113 C78.4130984,151.886996 77.9930361,152.433124 77.8208831,153.074048 C77.6487301,153.714973 77.738628,154.398046 78.0707504,154.972618 C78.4016698,155.547884 78.9478565,155.967901 79.5888511,156.140035 C80.2298456,156.312169 80.9129932,156.222281 81.4876283,155.890195 C82.0629569,155.559312 82.4830193,155.013184 82.6551723,154.37226 C82.8273253,153.731335 82.7374273,153.048262 82.405305,152.47369 C81.9480748,151.681158 81.0942206,151.201854 80.1794514,151.224225 Z M40.1531842,151.243747 C39.3013718,151.283232 38.5284868,151.754272 38.1030544,152.493211 C37.4180103,153.687651 37.8283878,155.211119 39.0207311,155.899956 C39.5953662,156.232042 40.2785138,156.32193 40.9195084,156.149796 C41.560503,155.977662 42.1066896,155.557645 42.4376091,154.982379 C43.1226531,153.78794 42.7122757,152.264472 41.5199324,151.575635 C41.1055201,151.336458 40.6311485,151.221267 40.1531842,151.243747 Z M71.520109,156.222083 C71.1015662,156.231218 70.6920246,156.34534 70.3290847,156.55397 C69.1367414,157.242807 68.7263639,158.766275 69.411408,159.960715 C69.7423274,160.535981 70.2885141,160.955997 70.9295087,161.128131 C71.5705032,161.300266 72.2536508,161.210377 72.8282859,160.878291 C74.0206292,160.189454 74.4310067,158.665986 73.7459626,157.471547 C73.2887324,156.679015 72.4348782,156.199711 71.520109,156.222083 Z M48.8222885,156.231843 C47.9704761,156.271328 47.1975911,156.742368 46.7721587,157.481308 C46.0871146,158.675747 46.4974921,160.199215 47.6898354,160.888052 C48.2644705,161.220138 48.9476181,161.310026 49.5886126,161.137892 C50.2296072,160.965758 50.7757939,160.545741 51.1067133,159.970476 C51.7917574,158.776036 51.3813799,157.252568 50.1890366,156.563731 C49.7746244,156.324555 49.3002527,156.209363 48.8222885,156.231843 Z M258.95044,160.009519 L265.920867,160.009519 L269.552521,167.262269 L264.934857,174.183132 L264.934857,167.916289 C264.934857,166.53688 263.815215,165.41736 262.435656,165.41736 C261.056097,165.41736 259.936454,166.53688 259.936454,167.916289 L259.936454,174.183132 L255.31879,167.262269 L258.95044,160.009519 Z M172.571797,184.930479 C171.192238,184.930479 170.072596,186.049999 170.072596,187.429408 C170.072596,188.808817 171.192238,189.928337 172.571797,189.928337 L222.555822,189.928337 C223.935381,189.928337 225.055023,188.808817 225.055023,187.429408 C225.055023,186.049999 223.935381,184.930479 222.555822,184.930479 L172.571797,184.930479 Z" id="Shape"></path>
                    </g>
                </g>
                <g id="CommerceBlock-White-BG" transform="translate(38.000000, 103.000000)" fill="#258C42">
                    <g id="Group-12">
                        <path d="M10.9520128,8.02140606 L10.951964,8.02002424 L10.9520128,8.02140606 Z M19.4046593,9.38409697 L18.2153512,8.7024 L13.9895895,6.28026667 L10.9520128,8.02140606 L9.76397442,8.7024 L5.53821279,11.1245333 L0.121946512,8.02002424 L7.05587791,4.04567273 L13.9895895,0.0713212121 L19.4046593,3.17507879 L20.9235209,4.04567273 L24.8196558,6.28026667 L27.8572326,8.02002424 L27.8572326,8.02140606 L22.4410395,11.1245333 L19.4046593,9.38409697 Z" id="Fill-4"></path>
                        <polygon id="Fill-5" points="22.4409907 20.8129697 22.4409907 15.9687758 22.4409907 11.1245333 27.8573058 8.02133333 27.8573058 15.9687758 27.8573058 23.9161697 27.8573058 23.9174788"></polygon>
                        <polygon id="Fill-6" points="5.53813953 20.8129697 0.121946512 23.9174788 7.05595116 27.8918061 13.9896628 31.8662303 19.404586 28.7624 17.8857488 27.8918061 13.9896628 25.6572848 10.9520128 23.9174788 10.9520128 23.9161697 9.76390116 23.235103"></polygon>
                        <polygon id="Fill-7" points="5.53813953 15.9687758 5.53813953 20.8129697 0.121946512 23.9174788 5.53813953 20.8129697 0.121946512 23.9174788 0.121946512 23.8356364 0.121946512 15.9687758 0.121946512 8.02002424 5.53813953 11.1245333"></polygon>
                        <path d="M31.0478407,23.9161697 L31.0479872,23.9174788 L31.0478407,23.9161697 Z M22.5952674,22.5534061 L23.7845023,23.235103 L28.010264,25.6572848 L31.0478407,23.9161697 L32.2359767,23.235103 L36.4617384,20.8129697 L41.877907,23.9174788 L34.9439756,27.8918061 L28.010264,31.8661576 L22.5952674,28.7624 L21.0764058,27.8918061 L17.1801977,25.6572848 L14.1426942,23.9174788 L14.1426942,23.9161697 L19.5588872,20.8129697 L22.5952674,22.5534061 Z" id="Fill-8"></path>
                        <polygon id="Fill-9" points="19.5589605 11.1245333 19.5589605 15.9687758 19.5589605 20.8129697 14.1426209 23.9161697 14.1426209 15.9687758 14.1426209 8.02133333"></polygon>
                        <polygon id="Fill-10" points="36.4616651 11.1245333 41.8779802 8.02002424 34.9439756 4.04567273 28.0103372 0.0712727273 22.5951942 3.17507879 24.1141291 4.04567273 28.0103372 6.28019394 31.047914 8.02002424 31.047914 8.02133333 32.2359035 8.70247273"></polygon>
                        <polygon id="Fill-11" points="36.4616651 15.9687758 36.4616651 11.1245333 41.8779802 8.02002424 41.8779802 15.9687758 41.8779802 23.9174788 36.4616651 20.8129697"></polygon>
                    </g>
                </g>
                <polygon id="Path" fill="#399754" points="121.48461 57.8072462 123.944759 60.2768874 114.982783 69.2378905 114.982783 64.308364"></polygon>
                <polygon id="Path" fill="#399754" points="133.472963 57.8072462 139.974795 64.308364 139.974795 69.9797625 121.299124 69.9797625 129.245799 62.0437099"></polygon>
                <g id="Group-3" transform="translate(124.000000, 110.000000)">
                    <path d="M25.3267857,21.6995124 C27.0821429,19.8527839 28.1678571,17.349481 28.1678571,14.5821013 C28.1660714,8.90625983 23.6267857,4.31204781 18.0285714,4.31023907 L15.8446429,4.31023907 L15.8446429,2.53224284 C15.8446429,1.13408304 14.7267857,0 13.3464286,0 C11.9660714,0 10.8464286,1.13408304 10.8464286,2.53224284 L10.8464286,4.31023907 L9.21964286,4.31023907 L9.21964286,2.53224284 C9.21964286,1.13408304 8.10178571,0 6.72142857,0 C5.34107143,0 4.22142857,1.13408304 4.22142857,2.53224284 L4.22142857,4.31023907 L2.5,4.31023907 C1.11964286,4.31023907 0,5.44251337 0,6.84067317 C0,8.23883297 1.11964286,9.37291601 2.5,9.37291601 L4.22142857,9.37291601 L4.22142857,33.4617804 L4.22142857,36.5022806 L2.5,36.5022806 C1.11964286,36.5022806 0,37.6363636 0,39.0345234 C0,40.4308745 1.11964286,41.5649575 2.5,41.5649575 L4.22142857,41.5649575 L4.22142857,43.4695659 C4.22142857,44.865917 5.34107143,46 6.72142857,46 C8.10178571,46 9.21964286,44.865917 9.21964286,43.4695659 L9.21964286,41.5649575 L10.8464286,41.5649575 L10.8464286,43.4695659 C10.8464286,44.865917 11.9660714,46 13.3464286,46 C14.7267857,46 15.8446429,44.865917 15.8446429,43.4695659 L15.8446429,41.5649575 L19.2482143,41.5649575 C25.1875,41.5631488 29.9982143,36.6903901 30,30.6745046 C30,26.9484901 28.1464286,23.6620006 25.3267857,21.6995124 Z" id="Path" fill="#258C42"></path>
                    <path d="M9.13043478,9.2 L17.9411491,9.2 C20.7750776,9.20542623 23.0750776,11.5314722 23.0804348,14.4073765 C23.0750776,17.2796634 20.7750776,19.6075181 17.9411491,19.6129443 L9.13043478,19.6129443 L9.13043478,9.2 Z" id="Path" fill="#F9F9F9"></path>
                    <path d="M19.1607919,36.6233631 L9.13043478,36.6233631 L9.13043478,24.9714286 L19.1607919,24.9714286 C22.3340062,24.9786636 24.9072205,27.5814474 24.9125776,30.7973959 C24.9072205,34.0115355 22.3340062,36.6179369 19.1607919,36.6233631 Z" id="Path" fill="#F9F9F9"></path>
                </g>
                <path d="M193.010356,161.006043 C192.136957,161.073107 191.324064,161.648445 190.984486,162.440036 L185.4321,175.492451 L181.793037,176.374872 C180.57515,176.682895 179.753,178.049118 180.067295,179.242739 C180.38159,180.43636 181.775665,181.242069 182.993553,180.934046 L187.795616,179.757485 C188.514941,179.570764 189.131262,179.036959 189.408809,178.360318 L193.047872,169.793542 L195.749033,177.073396 C196.056185,177.917343 196.901612,178.540803 197.812419,178.61775 C198.723227,178.694226 199.650877,178.221013 200.100903,177.441189 L203.777482,170.970103 L206.628707,177.257292 C207.084279,178.257605 208.320678,178.847062 209.4049,178.580924 L214.206963,177.404362 C215.42485,177.096339 216.247,175.730116 215.932705,174.536495 C215.61841,173.342874 214.224335,172.537165 213.006447,172.845188 L210.155222,173.543713 L206.178514,164.756331 C205.814109,163.970506 204.995069,163.433641 204.115127,163.395874 C203.235173,163.358224 202.334906,163.820848 201.901676,164.572435 L198.450193,170.639137 L195.448904,162.550279 C195.09456,161.592794 194.046641,160.929214 193.010356,161.006043 Z" id="Path" fill="#258C42"></path>
            </g>
        </g>
    </g>
</svg>